<svg width="165" height="89" viewBox="0 0 165 89" fill="none" xmlns="http://www.w3.org/2000/svg">
<path d="M161.701 5.38681L95.0353 38.5961L28.3696 5.38681C25.3329 9.41432 0.898193 50.184 0.898193 50.184C1.18068 50.184 1.39254 50.2546 1.67502 50.2546C62.9736 56.4019 79.9932 75.6915 85.6428 80.3549C91.2924 85.089 95.1059 84.5944 95.1059 84.5944C95.1059 84.5944 98.9194 85.089 104.569 80.3549C110.219 75.6915 127.238 56.4019 188.537 50.2546C188.819 50.2546 189.031 50.184 189.314 50.184C189.172 50.184 164.667 9.48497 161.701 5.38681Z" fill="#F5B304"/>
<path d="M189.172 50.184C188.89 50.184 188.678 50.2546 188.396 50.2546C127.097 56.4019 110.077 75.6915 104.428 80.3549C98.7782 85.089 94.9647 84.5944 94.9647 84.5944C94.9647 84.5944 91.1512 85.089 85.5016 80.3549C79.8519 75.6915 62.8324 56.4019 1.53378 50.2546C1.2513 50.2546 1.03944 50.184 0.756955 50.184C0.262611 50.9612 0.756955 51.5265 0.756955 51.5265C62.6911 57.5324 79.1457 76.8927 84.7954 81.6268C90.445 86.2902 94.8941 85.9369 94.8941 85.9369C94.8941 85.9369 99.3432 86.2902 104.993 81.6268C110.642 76.9634 127.097 57.6031 189.031 51.5265C189.172 51.5265 189.667 50.9612 189.172 50.184Z" fill="#994EF8"/>
<path d="M159.159 1.50062C125.049 -6.69571 94.9647 21.3555 94.9647 21.3555C94.9647 21.3555 64.8804 -6.69571 30.7707 1.50062C30.7707 1.50062 21.0957 16.3388 7.74838 41.5637C7.74838 41.5637 74.9085 49.1241 94.9647 77.3166C115.021 49.1241 182.181 41.5637 182.181 41.5637C168.834 16.3388 159.159 1.50062 159.159 1.50062Z" fill="#F5EFFB"/>
<path d="M182.181 41.5637C182.181 41.5637 115.021 49.1241 94.9647 77.3166C74.9791 49.1241 7.81899 41.5637 7.81899 41.5637C7.81899 41.5637 7.819 43.8247 4.07611 48.2762C4.07611 48.2762 65.0216 52.657 87.1964 77.9526C92.4224 83.8878 94.9647 83.1813 94.9647 83.1813C94.9647 83.1813 97.5777 83.8878 102.733 77.9526C124.837 52.657 185.853 48.2762 185.853 48.2762C182.181 43.7541 182.181 41.5637 182.181 41.5637Z" fill="#DFCBF4"/>
<path d="M155.345 4.46825C155.345 4.46825 129.851 -2.03229 94.9647 25.0297C60.1488 -1.96164 34.5842 4.46825 34.5842 4.46825L17.3528 37.9602C69.7532 41.5637 94.9647 68.0604 94.9647 68.0604C94.9647 68.0604 120.176 41.5637 172.577 37.9602L155.345 4.46825ZM95.0353 64.8808C95.0353 64.8808 71.4481 40.7158 21.4488 35.9817L35.926 5.88141C35.926 5.88141 60.9963 1.00601 95.0353 26.5842C129.074 1.00601 154.145 5.88141 154.145 5.88141L168.622 35.9817C118.623 40.7158 95.0353 64.8808 95.0353 64.8808Z" fill="#863ED5"/>
<path opacity="0.2" d="M101.462 50.2502C110.878 43.3022 140.303 27.9267 160.077 30.0464" stroke="#863ED5" stroke-width="3" stroke-linecap="round"/>
<path opacity="0.2" d="M101.462 30.753C109.819 24.2063 131.546 11.3792 151.602 12.4444" stroke="#863ED5" stroke-width="3" stroke-linecap="round"/>
<path opacity="0.2" d="M101.462 40.6451C110.525 33.5948 134.088 19.781 155.84 20.9282" stroke="#863ED5" stroke-width="3" stroke-linecap="round"/>
<path opacity="0.2" d="M89.4563 50.2502C80.0402 43.3022 50.615 27.9267 30.8413 30.0464" stroke="#863ED5" stroke-width="3" stroke-linecap="round"/>
<path opacity="0.2" d="M89.4563 30.753C81.0995 24.2063 59.372 11.3792 39.3157 12.4444" stroke="#863ED5" stroke-width="3" stroke-linecap="round"/>
<path opacity="0.2" d="M89.4563 40.6451C80.3933 33.5948 56.8296 19.781 35.0785 20.9282" stroke="#863ED5" stroke-width="3" stroke-linecap="round"/>
<path d="M95.0353 21.3555C95.0353 21.3555 95.7415 18.8825 97.0833 19.5891C97.0833 19.5891 96.2359 59.6521 97.6483 75.2676C98.0014 79.1538 101.391 84.4531 102.733 86.4315H100.967L100.473 88.0567C100.473 88.0567 95.2472 79.2244 95.0353 75.7622C93.976 60.2174 94.541 25.1004 95.0353 21.3555Z" fill="#54DAF5"/>
</svg>
